<svg width="543" height="228" viewBox="0 0 543 228" fill="none" xmlns="http://www.w3.org/2000/svg">
<path d="M271.519 0.409668C287.769 0.409668 301.869 5.08889 313.801 14.4556L314.911 15.3354C326.295 24.5441 335.076 37.3949 341.266 53.8657C347.755 70.7731 350.993 90.8096 350.993 113.965C350.993 137.022 347.754 157.009 341.266 173.916L341.267 173.917C334.878 190.822 325.726 203.968 313.802 213.329L313.801 213.33C301.869 222.598 287.768 227.228 271.519 227.228C255.27 227.228 241.17 222.598 229.238 213.33L229.235 213.327C217.41 203.966 208.259 190.823 201.772 173.918C195.284 157.011 192.045 137.023 192.045 113.965C192.045 90.8096 195.284 70.7731 201.772 53.8657C208.259 36.8642 217.409 23.7197 229.236 14.4565L230.361 13.5923C242.052 4.80149 255.777 0.409683 271.519 0.409668ZM138.342 3.93604V146.472H171.849V170.801H138.342V223.702H112.246V170.801H0.409668V148.511L0.487793 148.404L105.27 4.10498L105.393 3.93604H138.342ZM508.975 3.93604V146.472H542.482V170.801H508.975V223.702H482.879V170.801H371.042V148.511L371.121 148.404L475.903 4.10498L476.026 3.93604H508.975ZM271.519 24.7397C254.927 24.7398 241.825 32.6321 232.19 48.4946L232.189 48.4937C222.641 64.2751 217.847 86.0862 217.847 113.965C217.847 141.648 222.642 163.411 232.191 179.292H232.19C241.825 195.055 254.927 202.898 271.519 202.898C288.112 202.898 301.164 195.054 310.701 179.291H310.702C320.348 163.41 325.191 141.648 325.191 113.965C325.191 86.0864 320.347 64.2767 310.702 48.4956L310.701 48.4927C301.163 32.6313 288.11 24.7397 271.519 24.7397ZM402.021 146.472H482.879V34.8833L402.021 146.472ZM31.3882 146.472H112.246V34.8853L31.3882 146.472Z" stroke="url(#paint0_linear_2652_2)" stroke-width="0.818841"/>
<defs>
<linearGradient id="paint0_linear_2652_2" x1="271.036" y1="0.818848" x2="271.036" y2="166.225" gradientUnits="userSpaceOnUse">
<stop stop-color="white"/>
<stop offset="1" stop-color="#0A0A0A" stop-opacity="0"/>
</linearGradient>
</defs>
</svg>
